<svg width="100" height="120" viewBox="0 0 100 120" xmlns="http://www.w3.org/2000/svg">
  <!-- Dark Hole -->
  <path d="M 20 120 L 20 50 A 30 30 0 0 1 80 50 L 80 120 Z" fill="#050508"/>
  
  <!-- Stone Archway -->
  <path d="M 10 120 L 10 50 A 40 40 0 0 1 90 50 L 90 120 L 80 120 L 80 50 A 30 30 0 0 0 20 50 L 20 120 Z" fill="#555"/>
  
  <!-- Arch Highlights/Bricks (just simple lines) -->
  <rect x="10" y="80" width="10" height="5" fill="#333"/>
  <rect x="80" y="60" width="10" height="5" fill="#333"/>
  <rect x="15" y="30" width="10" height="10" fill="#444" transform="rotate(20 20 35)"/>
  <rect x="65" y="15" width="10" height="10" fill="#444" transform="rotate(-15 70 20)"/>
</svg>
